Projeto Thomaz Farkas 2 - Geraldo Sarno - Enciclopédia Audiovisual da Cultura Popular

Project Thomaz Farkas is a collection of 39 documentaries produced by Thomas Farkas  in the 1960s and 1970s, featuring various cultural events of Brazil linked to the specific reality of each region. The documentaries were organized in a box containing seven discs, and include a short interview with the participation of renowned photographer, producer and documentary filmmaker, exposing a broad universe of Brazilian culture.

The Disc 2 contains the following documentaries by Geraldo Sarno:

A Cantoria (1970)
Casa de Farinha (1970)
Jornal do Sertão (1970)
O Engenho (1970)
Os Imaginários (1970)
Padre Cícero O Patriarca de Juazeiro (1972)
Vitalino - Lampião (1969)

All films have Portuguese audio, and no subtitles. There's a 300 dpi scan of the DVD cover included.

   General
      Complete name : Projeto Thomaz Farkas - Geraldo Sarno - Enciclopédia Audiovisual da Cultura Popular.avi
      Format : AVI
      Format/Info : Audio Video Interleave
      File size : 1.06 GiB
      Duration : 1h 18mn
      Overall bit rate : 1 945 Kbps
      Writing application : VirtualDubMod 1.5.10.2 (build 2540/release)
      Writing library : VirtualDubMod build 2540/release
   Video #0
      ID : 0
      Format : MPEG-4 Visual
      Format profile : AdvancedSimple@L5
      Format settings, BVOP : Yes
      Format settings, QPel : No
      Format settings, GMC : No warppoints
      Format settings, Matrix : Default (MPEG)
      Muxing mode : Packed bitstream
      Codec ID : XVID
      Codec ID/Hint : XviD
      Duration : 1h 18mn
      Bit rate : 1 711 Kbps
      Width : 624 pixels
      Height : 464 pixels
      Display aspect ratio : 4:3
      Frame rate : 23.976 fps
      Resolution : 24 bits
      Colorimetry : 4:2:0
      Scan type : Progressive
      Bits/(Pixel*Frame) : 0.247
      Stream size : 956 MiB (88%)
      Writing library : XviD 1.2.0.dev47 (UTC 2006-11-01)
   Audio #1
      ID : 1
      Format : AC-3
      Format/Info : Audio Coding 3
      Codec ID : 2000
      Duration : 1h 18mn
      Bit rate mode : Constant
      Bit rate : 224 Kbps
      Channel(s) : 2 channels
      Channel positions : L R
      Sampling rate : 48.0 KHz
      Stream size : 125 MiB (12%)
      Alignment : Split accross interleaves
      Interleave, duration : 42 ms (1.00 video frame)
      Interleave, preload duration : 500 ms

Each part was ripped and is presented individually. The specs refer to all films assembled togheter.